<svg width="111" height="128" viewBox="0 0 111 128" fill="none" xmlns="http://www.w3.org/2000/svg">
<path d="M5.92248 59.7344C3.57668 51.4344 2.34863 41.4842 3.23152 29.2504C2.59825 24.7548 5.21561 17.6352 8.99413 12.9029C8.97171 12.664 9.04657 12.4101 9.27325 12.1782C11.5821 9.83417 14.2768 7.23055 17.8064 7.26688C19.2636 7.28093 20.7377 7.68719 21.856 8.66237C23.1169 9.7613 23.6771 11.4181 23.6952 13.0588C23.7369 16.6101 22.0735 20.0804 20.5804 23.2162C19.8693 24.7064 19.1831 26.2003 18.5504 27.7178C18.3064 28.552 18.0679 29.3885 17.8379 30.2272C15.5812 38.3867 14.0168 46.6773 15.6209 54.9589C13.1982 57.6225 9.69562 59.1989 5.92558 59.7396L5.92248 59.7344Z" fill="#755A58"/>
<path d="M15.6178 54.9537C16.721 60.6427 19.3182 66.3267 24.2176 71.9593C22.7495 68.5966 27.7216 59.433 25.2172 57.6355C25.2333 57.5169 25.2582 57.4058 25.2798 57.2868C22.4968 54.5283 20.778 50.9047 19.6161 47.1979C18.2583 42.8493 17.3875 38.1246 17.5305 33.5575C17.5631 32.4378 17.6917 31.3249 17.991 30.2683C18.2878 29.2145 18.7495 28.2146 19.465 27.3251C20.5272 23.1599 33.9464 28.0812 36.5115 29.2324C39.9198 31.2936 43.021 33.4148 46.2355 34.5554C46.3869 34.7249 46.546 34.8885 46.7184 35.0456C48.4895 36.6739 50.7087 35.9918 52.7529 35.3468C53.0201 35.2622 53.2902 35.1802 53.5634 35.1035C53.886 35.0287 54.2157 34.9397 54.547 34.8342C56.0526 34.4541 57.5887 34.1948 59.1343 34.0688C58.5064 45.6615 62.4003 57.3349 72.183 64.2164C80.3317 70.3233 93.3421 72.487 101.535 64.7039C102.477 63.618 103.37 62.4947 104.174 61.3147C107.515 72.2815 105.837 85.5197 93.43 89.0449C95.7888 92.9865 96.8307 97.6197 96.4038 102.191C112.509 105.536 101.339 126.991 89.0603 117.935C87.1708 119.951 83.6259 119.7 81.8035 117.734C81.6822 120.529 77.1526 117.72 76.6599 116.206C70.2612 116.701 63.8628 117.201 57.459 117.702C54.6517 121.106 48.9244 122.015 45.049 119.725C43.5251 122.735 39.7267 124.146 36.5914 123.006C31.7638 125.121 28.0114 119.29 28.4393 114.965C38.3875 98.3884 14.5568 90.2747 5.92516 59.7343C9.69519 59.1935 13.1977 57.6171 15.6205 54.9536L15.6178 54.9537Z" fill="#FAF1DD"/>
<path d="M72.1801 64.2139C62.3976 57.3351 58.5008 45.6592 59.1314 34.0662C59.4275 34.0425 59.7232 34.0133 60.0176 34.0033C62.3182 33.8919 64.7427 34.4083 66.8533 33.1985C68.2864 32.3728 69.0371 30.8634 70.1614 29.729C75.8103 25.4049 80.4728 18.5773 88.0447 16.1739C88.0777 16.0622 88.1277 15.9576 88.2077 15.8536C88.8465 14.9996 90.0116 14.7475 91.0048 15.0376C92.1239 15.3707 92.8291 16.2605 93.3137 17.2752C93.8523 18.398 94.2257 19.6173 94.6182 20.797C95.0613 22.1125 95.4643 23.4417 95.827 24.7792C97.1596 29.6978 98.1111 35.0205 97.5747 40.1265C97.383 41.9296 96.8823 43.7655 95.8605 45.2669C97.6553 47.9589 99.1791 50.8751 100.566 53.2846C102.053 55.6488 103.287 58.4025 104.174 61.312C103.369 62.4919 102.474 63.6182 101.535 64.7012C93.3446 72.4841 80.3315 70.3206 72.1828 64.2137L72.1801 64.2139Z" fill="#E7B387"/>
<path d="M28.7198 49.2865C27.3978 50.4841 26.5881 51.9321 26.055 53.5054C25.7347 53.0336 25.4227 52.564 25.1128 52.1243C20.6318 45.7653 17.3777 36.5244 21.801 29.3285C22.5228 29.4521 23.2349 29.6311 23.9297 29.8741C28.6332 31.5155 32.5238 35.2909 35.0869 39.6469C35.9267 41.6636 36.4498 43.7601 36.5109 45.7748C33.6575 46.2969 30.9067 47.3036 28.7198 49.2865Z" fill="#EAAC8E"/>
<path d="M81.029 31.6487C81.1181 29.9403 81.6355 28.2616 82.2862 26.691C82.9817 25.0188 83.8097 23.3673 84.8517 21.8809C85.9307 20.3399 87.1986 19.0725 88.868 18.189C89.6157 17.7917 90.395 17.455 91.1718 17.1212C91.1875 17.1501 91.195 17.1796 91.2135 17.2084C92.4459 19.2136 93.4784 21.3287 94.3042 23.5322C94.9552 25.2754 95.4685 27.0804 95.8443 28.9115C96.0558 30.9673 96.1186 33.0446 96.0757 35.0967C96.0251 37.6165 95.6382 40.0563 95.2158 42.5342C95.1636 42.8384 95.1297 43.1686 95.0992 43.5096C92.8199 41.0349 90.0075 39.2866 86.7805 38.2398C85.2983 37.7577 83.7786 37.4393 82.2406 37.2097C81.4197 35.4594 80.9244 33.6013 81.0261 31.6461L81.029 31.6487Z" fill="#EAAC8E"/>
<path d="M93.6786 40.5451C94.4901 42.4709 95.6399 44.2744 96.6627 46.0978C97.6575 47.874 98.7048 49.6192 99.7259 51.3799C101.824 54.9957 103.888 58.6713 105.235 62.6436C106.496 66.3625 107.122 70.3642 106.478 74.2675C105.95 77.4823 104.595 80.5345 102.673 83.1571C100.521 86.0938 97.5245 88.6095 94.097 89.8964C93.2109 90.2298 92.7902 88.9209 93.6151 88.5345C99.3001 85.8744 103.61 80.8175 104.855 74.6013C106.414 66.8137 102.538 59.2807 98.7783 52.7339C97.6653 50.794 96.5422 48.8657 95.508 46.8819C94.4803 44.9113 93.7399 42.8711 92.9667 40.7923C92.7949 40.3346 93.491 40.0967 93.6782 40.5396L93.6786 40.5451Z" fill="#49312C"/>
<path d="M67.3511 33.5129C68.0223 31.6157 69.331 29.9218 70.5432 28.3332C71.7879 26.7013 73.1631 25.1748 74.6321 23.7401C77.5396 20.9 80.8194 18.4571 84.3795 16.4969C85.2707 16.0047 86.1803 15.5412 87.1004 15.1099C88.031 14.6722 88.998 14.2457 90.0346 14.1476C92.2004 13.9447 93.4896 15.5197 94.2921 17.3178C96.2193 21.6451 97.9225 26.2041 98.7301 30.8841C99.5425 35.5938 99.3248 40.9175 96.9469 45.1761C96.4864 46.0011 95.2107 45.3868 95.6248 44.5241C97.3826 40.845 97.9009 36.9069 97.4773 32.8636C97.0113 28.4161 95.4738 24.1513 93.8443 20.016C93.271 18.5595 92.6571 15.8383 90.7877 15.5585C89.7826 15.4085 88.7442 15.9057 87.8552 16.313C87.0085 16.7009 86.1773 17.1151 85.3593 17.5611C82.05 19.3587 78.9656 21.5911 76.2138 24.1605C74.6637 25.6092 73.2255 27.1702 71.8831 28.8118C70.5256 30.4709 69.4349 32.3487 68.0217 33.9543C67.698 34.3215 67.208 33.9219 67.3536 33.51L67.3511 33.5129Z" fill="#49312C"/>
<path d="M82.998 37.3718C83.7532 35.9249 84.7339 34.615 85.8869 33.4622C86.4584 32.8916 87.0623 32.3543 87.6933 31.8532C88.3556 31.3309 89.0374 30.8126 89.8143 30.4815C90.4905 30.1931 90.8757 31.1547 90.3639 31.5653C89.7645 32.0505 89.0955 32.4394 88.4811 32.9065C87.8798 33.3645 87.3082 33.8558 86.7691 34.3831C85.6707 35.4582 84.6813 36.6459 83.7837 37.8953C83.4655 38.3386 82.7475 37.8459 82.9953 37.372L82.998 37.3718Z" fill="#49312C"/>
<path d="M85.9935 36.774C86.7798 36.5734 87.5662 36.3755 88.3497 36.1751C88.7361 36.0767 89.1264 35.9943 89.5167 35.912C89.9365 35.8221 90.4574 35.6157 90.8841 35.7384C91.3805 35.8808 91.4868 36.4552 91.0974 36.7806C90.7672 37.0554 90.233 37.0742 89.8235 37.1551C89.4169 37.2386 89.0132 37.3247 88.6025 37.3893C87.8031 37.5198 87.0039 37.653 86.2018 37.7837C85.6266 37.8792 85.4218 36.9184 85.9906 36.7715L85.9935 36.774Z" fill="#49312C"/>
<path d="M88.748 37.8598L90.3674 37.9662C90.6309 37.983 90.8969 37.9969 91.1609 38.0219C91.4358 38.0461 91.7098 38.0567 91.9746 38.1308C92.2726 38.2107 92.481 38.4527 92.4599 38.7711C92.4407 39.0785 92.2031 39.3111 91.8967 39.3438C91.5876 39.3767 91.276 39.336 90.9631 39.3145C90.6885 39.2957 90.4159 39.2659 90.1408 39.239C89.5933 39.1849 89.046 39.1336 88.4985 39.0796C88.1739 39.048 87.938 38.6495 88.0123 38.3492C88.1013 37.9877 88.394 37.8385 88.7427 37.8629L88.748 37.8598Z" fill="#49312C"/>
<path d="M82.6566 119.821C80.6095 120.387 78.2062 120.322 76.6626 118.667C75.134 117.03 74.8585 114.689 75.4223 112.586C76.5474 108.384 79.8641 104.766 83.6709 102.78C87.8121 100.618 92.75 100.248 97.1689 101.768C101.28 103.18 104.886 106.334 105.724 110.747C106.177 113.138 105.667 115.69 104.123 117.6C102.699 119.36 100.469 120.51 98.1846 120.388C97.2303 120.338 97.11 118.836 98.0779 118.885C101.87 119.077 104.571 115.604 104.348 112C104.111 108.121 101.249 105.166 97.8408 103.651C94.1366 102.002 89.7807 101.948 86.0106 103.412C82.6395 104.722 79.7725 107.286 78.0415 110.458C77.0262 112.319 76.2153 114.675 77.1914 116.725C78.2129 118.877 80.5803 118.744 82.6037 119.038C82.9903 119.095 83.0422 119.711 82.6589 119.815L82.6566 119.821Z" fill="#49312C"/>
<path d="M99.7236 115.935C99.6302 117.198 99.2757 118.324 98.3835 119.265C97.4991 120.199 96.3607 120.826 95.0851 121.023C92.5935 121.408 89.847 119.933 88.8334 117.623C88.4715 116.796 89.8231 116.094 90.2573 116.899C91.1827 118.62 92.8925 119.769 94.906 119.5C95.8099 119.379 96.7029 118.911 97.3637 118.291C98.0629 117.634 98.7641 116.735 98.9837 115.788C99.094 115.302 99.7585 115.465 99.7236 115.935Z" fill="#49312C"/>
<path d="M89.8422 117.865C89.6681 118.146 89.5853 118.441 89.3803 118.71C89.2129 118.929 89.0085 119.129 88.8061 119.319C88.3499 119.742 87.8532 120.058 87.2901 120.322C86.1715 120.844 84.8797 121.004 83.6704 120.749C82.464 120.496 81.3884 119.853 80.6153 118.892C79.9169 118.021 79.2852 116.511 79.6368 115.382C79.8859 114.581 81.0495 114.577 81.1518 115.48C81.2011 115.905 81.146 116.322 81.2714 116.742C81.4038 117.183 81.5986 117.579 81.8762 117.95C82.4163 118.668 83.2397 119.107 84.1124 119.278C85.0017 119.452 85.9145 119.341 86.7511 119.003C87.1919 118.824 87.6116 118.578 88.0084 118.318C88.2042 118.189 88.3852 118.045 88.5718 117.904C88.7713 117.75 89.0496 117.629 89.2229 117.453C89.5032 117.168 90.0855 117.482 89.8451 117.868L89.8422 117.865Z" fill="#49312C"/>
<path d="M89.8548 114.116C89.8464 114.729 89.7972 115.344 89.8214 115.955C89.8325 116.265 89.8656 116.577 89.9202 116.885C89.9744 117.187 90.0914 117.487 90.1159 117.794C90.1506 118.245 89.4795 118.528 89.2387 118.1C89.0542 117.771 88.9942 117.387 88.9353 117.02C88.8846 116.69 88.8555 116.356 88.8537 116.023C88.8468 115.311 88.9411 114.637 89.2757 114.002C89.4082 113.752 89.8567 113.796 89.8519 114.114L89.8548 114.116Z" fill="#49312C"/>
<path d="M26.8074 51.7089C26.7999 53.7202 26.8454 55.7086 26.6107 57.7142C26.3724 59.7446 26.0346 61.7602 25.6885 63.7737C25.0097 67.7204 24.3466 71.6961 24.3805 75.7152C24.414 79.4967 25.0283 83.379 26.8645 86.732C28.3492 89.4433 30.5051 91.7573 33.0724 93.4792C36.0156 95.4532 39.3578 96.4673 42.8704 96.7643C43.6757 96.8329 43.5922 98.1966 42.7804 98.1914C36.3272 98.1495 30.0123 94.3221 26.4645 89.0252C21.9419 82.273 22.506 73.7856 23.7637 66.1396C24.1496 63.8009 24.5853 61.4724 24.985 59.1355C25.1919 57.9324 25.363 56.7236 25.5586 55.5158C25.7599 54.2721 25.9993 53.0258 26.0574 51.7649C26.0783 51.2908 26.8109 51.2197 26.8076 51.7117L26.8074 51.7089Z" fill="#49312C"/>
<path d="M44.2594 37.6599C45.2984 37.0561 46.3059 36.5092 47.4233 36.0475C48.4823 35.6089 49.5614 35.2236 50.6545 34.881C52.9262 34.1707 55.2542 33.6366 57.6059 33.2812C62.2738 32.5728 67.1346 32.542 71.7905 33.359C72.4988 33.4836 72.2769 34.5539 71.5702 34.451C66.9849 33.782 62.3894 33.7012 57.7964 34.3878C53.2196 35.0705 48.8573 36.5822 44.5839 38.3062C44.2068 38.4586 43.8973 37.8714 44.2566 37.6601L44.2594 37.6599Z" fill="#49312C"/>
<path d="M47.8652 36.6909C46.1749 35.7782 44.6744 34.5378 43.03 33.5398C41.374 32.5345 39.6616 31.6179 37.8974 30.8197C34.3862 29.233 30.6773 28.0947 26.8781 27.4546C25.0642 27.149 23.042 26.7571 21.2005 26.9861C20.3149 27.0954 19.5682 27.5063 19.2101 28.3513C18.8543 29.188 18.8627 30.1545 18.8389 31.0496C18.7114 35.6047 18.6344 40.2546 19.5754 44.7366C20.4864 49.065 22.3988 53.03 25.5857 56.1286C26.2634 56.7854 25.3455 57.8641 24.6185 57.2436C21.4654 54.5442 19.4955 50.5396 18.4577 46.5808C17.211 41.8336 17.203 36.9084 17.3708 32.0362C17.4347 30.1657 17.3029 27.8474 18.8487 26.4919C20.3534 25.1748 22.6063 25.5067 24.4313 25.6995C28.5904 26.1365 32.6929 27.1621 36.5717 28.7309C38.7262 29.6025 40.8289 30.628 42.8135 31.8368C44.7778 33.0306 46.8992 34.3198 48.3781 36.1026C48.6408 36.4173 48.2065 36.8798 47.8654 36.6936L47.8652 36.6909Z" fill="#49312C"/>
<path d="M34.3364 45.7761C33.0825 44.9308 31.756 44.178 30.3764 43.5629C29.7162 43.2682 29.0365 43.0078 28.3466 42.7945C27.6007 42.5633 26.8263 42.4297 26.0872 42.1789C25.7933 42.0796 25.5818 41.8706 25.6019 41.5386C25.618 41.2642 25.8606 40.9492 26.1651 40.9659C27.7746 41.0483 29.4311 41.7148 30.8829 42.385C32.3685 43.0691 33.7513 43.9599 34.9656 45.0567C35.4328 45.4798 34.8356 46.1123 34.3393 45.7787L34.3364 45.7761Z" fill="#49312C"/>
<path d="M32.0034 46.5864C31.2003 46.7418 30.397 46.8944 29.5939 47.0498C29.2005 47.1269 28.8057 47.1849 28.4084 47.2459C27.949 47.3168 27.5092 47.4327 27.058 47.2735C26.6238 47.1213 26.6759 46.5083 26.9874 46.2786C27.338 46.0215 27.8515 46.0205 28.2708 45.9607C28.6818 45.9015 29.09 45.8397 29.5049 45.7966C30.313 45.712 31.1212 45.6273 31.9293 45.5426C32.2087 45.5146 32.4659 45.7504 32.4854 46.0249C32.5073 46.3348 32.2807 46.5285 32.003 46.581L32.0034 46.5864Z" fill="#49312C"/>
<path d="M30.2853 48.6317C29.7992 48.8657 29.3106 49.1025 28.8245 49.3365C28.5894 49.4488 28.3573 49.5663 28.119 49.6734C27.865 49.7898 27.6145 49.9168 27.3434 49.9853C27.0428 50.0612 26.744 49.9704 26.598 49.683C26.4583 49.4088 26.5443 49.0803 26.7938 48.9014C27.0514 48.7192 27.346 48.5972 27.6287 48.4624C27.8719 48.3468 28.121 48.2389 28.3673 48.1286C28.8704 47.9044 29.3711 47.683 29.8742 47.4588C30.1708 47.3258 30.5763 47.5347 30.666 47.837C30.7731 48.19 30.6023 48.4781 30.2878 48.6288L30.2853 48.6317Z" fill="#49312C"/>
<path d="M51.4917 120.385C53.2176 119.875 55.3623 119.723 56.2755 117.923C57.1673 116.169 56.583 114.096 55.6335 112.496C53.778 109.372 50.7057 106.926 47.2636 105.774C43.4353 104.494 39.1468 104.812 35.524 106.58C32.2024 108.204 29.3611 111.206 28.9782 115.011C28.7705 117.089 29.3745 119.324 30.9102 120.792C32.3169 122.134 34.2269 122.794 36.151 122.419C37.1023 122.234 37.1981 123.738 36.2577 123.923C34.2773 124.312 32.2406 123.716 30.6326 122.538C28.9005 121.268 27.8554 119.323 27.5259 117.221C26.8181 112.714 29.5459 108.537 33.2077 106.163C37.1096 103.632 42.1086 102.815 46.6136 103.968C50.7512 105.027 54.5142 107.658 56.7963 111.288C58.136 113.42 58.894 116.054 57.752 118.441C56.6126 120.825 53.9813 121.474 51.5468 121.163C51.1525 121.112 51.1169 120.494 51.4917 120.385Z" fill="#49312C"/>
<path d="M34.8165 119.476C35.1582 120.364 35.956 121.136 36.7163 121.685C37.4708 122.23 38.4383 122.582 39.3777 122.576C41.4091 122.56 42.9394 121.178 43.6124 119.344C43.9263 118.494 45.3704 118.978 45.1242 119.859C44.4496 122.287 41.9342 124.145 39.4154 124.108C38.1219 124.091 36.9149 123.636 35.9044 122.833C34.8884 122.028 34.3782 120.961 34.1075 119.726C34.0064 119.263 34.6387 119.011 34.8192 119.476L34.8165 119.476Z" fill="#49312C"/>
<path d="M44.7173 119.746C44.9021 119.886 45.1634 119.949 45.3655 120.063C45.5676 120.177 45.7673 120.297 45.9795 120.4C46.4065 120.604 46.8571 120.794 47.3162 120.911C48.2153 121.145 49.1542 121.133 50.037 120.83C50.8503 120.548 51.5965 120.015 52.0292 119.26C52.2577 118.861 52.4055 118.441 52.4798 117.988C52.5536 117.526 52.4447 117.108 52.4317 116.655C52.4061 115.755 53.5548 115.581 53.9177 116.345C54.4157 117.394 54.0231 118.946 53.4787 119.897C52.8567 120.988 51.8599 121.802 50.6825 122.227C49.5424 122.638 48.2691 122.674 47.1059 122.336C46.4866 122.156 45.925 121.903 45.3963 121.537C45.1692 121.378 44.9386 121.208 44.7418 121.015C44.5011 120.78 44.377 120.494 44.1653 120.244C43.8758 119.899 44.4023 119.503 44.7228 119.746L44.7173 119.746Z" fill="#49312C"/>
<path d="M44.1723 116.34C44.5934 116.922 44.7818 117.575 44.8757 118.281C44.9209 118.611 44.9393 118.946 44.9356 119.28C44.9292 119.652 44.924 120.04 44.7877 120.391C44.6099 120.849 43.9056 120.664 43.8762 120.213C43.8544 119.906 43.9303 119.589 43.9415 119.285C43.9521 118.973 43.941 118.662 43.9079 118.35C43.8457 117.743 43.7099 117.137 43.6152 116.535C43.5656 116.222 44.006 116.114 44.1698 116.343L44.1723 116.34Z" fill="#49312C"/>
<path d="M33.6295 95.9013C33.6664 96.4204 33.8248 96.9201 33.8513 97.4482C33.8771 97.9655 33.892 98.4835 33.8741 99.0011C33.8409 99.9569 33.7859 100.914 33.6593 101.863C33.5282 102.826 33.3584 103.783 33.1499 104.732C32.9497 105.645 32.7952 106.817 32.249 107.591C31.9634 107.994 31.2724 107.726 31.2584 107.26C31.2299 106.358 31.6697 105.356 31.8693 104.474C32.0749 103.56 32.2445 102.638 32.3781 101.711C32.5119 100.786 32.64 99.8591 32.7241 98.927C32.7665 98.4459 32.8199 97.9667 32.8623 97.4856C32.9079 96.9742 33.0563 96.4474 33.0723 95.9408C33.0827 95.5876 33.6035 95.5343 33.6322 95.9011L33.6295 95.9013Z" fill="#49312C"/>
<path d="M22.8269 71.1866C16.1643 61.6904 13.7352 49.4458 15.1346 38.0223C15.8395 32.287 17.5467 26.6636 20.2296 21.5446C21.6445 18.846 23.4203 16.0371 23.0387 12.8541C22.7042 10.0666 20.4927 8.39315 17.7557 8.43716C12.0196 8.53011 7.95418 13.9548 6.17484 18.8703C4.08698 24.6355 3.80353 31.0731 3.81129 37.1486C3.83097 48.6653 6.36924 60.2929 10.821 70.8968C15.2722 81.4925 21.7379 91.3332 29.9156 99.4269C30.9236 100.426 31.9569 101.397 33.0131 102.343C33.5703 102.842 32.8051 103.724 32.2504 103.223C23.4638 95.2486 16.3618 85.5268 11.3188 74.7928C6.2955 64.1038 3.28213 52.4799 2.66864 40.6802C2.51542 37.7132 2.47693 34.7462 2.62136 31.7772C2.77871 28.5669 3.02656 25.3228 3.6687 22.1682C4.85141 16.3525 8.00741 10.394 13.6398 7.83866C15.9239 6.8023 18.8209 6.50925 21.121 7.66009C23.7384 8.97145 24.6961 11.8786 24.4063 14.6476C24.0709 17.8515 22.1353 20.6034 20.7623 23.4301C19.4489 26.1351 18.4095 28.9655 17.6488 31.8744C14.6258 43.4405 15.9156 56.1839 21.3604 66.8457C22.0332 68.164 22.7135 69.4735 23.4758 70.7444C23.7361 71.1794 23.1168 71.6141 22.8218 71.1924L22.8269 71.1866Z" fill="#49312C"/>
<path d="M60.0655 73.5157C61.0361 74.526 62.021 75.5461 63.2468 76.2268C64.4668 76.9025 65.9844 77.1909 67.2793 76.6509C68.0273 76.3356 68.6454 75.7672 69.2332 75.1954C70.2191 74.2293 71.1842 73.1992 71.7812 71.9493C72.3755 70.6995 72.5579 69.1894 71.9638 67.9394L70.8462 67.0516C67.5162 66.594 64.0683 67.0545 60.9796 68.3802C59.9269 68.8292 58.7942 69.538 58.6368 70.6693C58.4874 71.759 59.3069 72.7199 60.0682 73.5155L60.0655 73.5157Z" fill="#EAAC8E"/>
<path d="M78.0874 70.1493C78.5452 70.2097 78.958 70.1367 79.4237 70.2703C79.8867 70.4041 80.3276 70.6105 80.6917 70.9289C81.4053 71.553 81.7113 72.4766 81.7957 73.3968C81.9571 75.1693 81.5179 77.2194 80.8388 78.8522C80.1295 80.5609 78.8622 82.066 77.1071 82.7424C75.2055 83.473 73.0196 83.1992 71.1871 82.4004C69.0221 81.4585 67.0296 79.7914 65.4759 78.0329C64.9828 77.4751 65.878 76.7695 66.4137 77.1959C68.1799 78.6005 69.6701 80.2733 71.7864 81.1831C73.7564 82.0323 76.1981 82.1376 77.93 80.7115C79.4141 79.4888 80.0335 77.4368 80.3187 75.6052C80.4613 74.6881 80.5862 73.6383 80.3037 72.7377C80.1447 72.2299 79.8348 71.8284 79.3833 71.549C79.1718 71.4165 78.9353 71.3185 78.7071 71.22C78.4675 71.1168 78.1946 70.9285 77.9492 70.8585C77.5058 70.7316 77.6269 70.0891 78.0903 70.1519L78.0874 70.1493Z" fill="#49312C"/>
<path d="M52.381 75.0638C51.9991 75.3423 51.5743 75.8232 51.2784 76.1966C50.9147 76.6541 50.766 77.1755 50.8156 77.7594C50.9018 78.7805 51.4527 79.8069 51.9703 80.6717C52.9222 82.2652 54.2347 83.8987 56.0988 84.4111C58.1273 84.9693 60.2332 84.0384 61.7055 82.6499C63.3855 81.069 64.1965 78.9843 65.3684 77.057C65.7915 76.3604 66.8019 76.8542 66.5037 77.6185C65.0991 81.2315 62.3651 85.2067 58.2698 85.8607C54.28 86.4991 51.3742 82.9734 49.9498 79.6868C49.5252 78.7088 49.2615 77.5337 49.6388 76.4988C49.8215 75.994 50.1334 75.5758 50.5403 75.2272C50.7334 75.0605 50.9338 74.9206 51.1571 74.7955C51.4201 74.6512 51.7146 74.6057 51.9754 74.4697C52.3784 74.258 52.7655 74.7852 52.3839 75.0663L52.381 75.0638Z" fill="#49312C"/>
<path d="M70.4098 84.3433C70.3926 84.4484 70.4052 84.5103 70.3873 84.6427C70.375 84.7392 70.3408 84.8345 70.312 84.9294C70.2432 85.1529 70.1542 85.3614 70.0459 85.5685C69.8392 85.9656 69.5928 86.3438 69.3057 86.6865C69.0184 87.0266 68.6932 87.3338 68.3498 87.6149C67.9907 87.9054 67.5992 88.1245 67.1816 88.3235C66.8513 88.4808 66.3938 88.2319 66.2908 87.8977C66.1699 87.5019 66.3655 87.1793 66.7166 87.0069C66.8724 86.9303 66.5824 87.0792 66.7351 86.9974C66.7798 86.9724 66.8246 86.95 66.8693 86.925C66.9507 86.8783 67.0293 86.8317 67.1078 86.7824C67.2647 86.6839 67.4218 86.588 67.5755 86.4815C67.7343 86.3719 67.887 86.2517 68.0338 86.1266C68.0494 86.1145 68.1546 86.0197 68.0853 86.0819C68.0132 86.1444 68.1212 86.0493 68.1339 86.0348C68.2082 85.9667 68.2795 85.8933 68.351 85.8227C68.6082 85.5585 68.8504 85.2763 69.064 84.9743C69.0939 84.9339 69.1211 84.8938 69.1508 84.8507C69.084 84.9483 69.1753 84.8107 69.1802 84.8021C69.2415 84.7049 69.3031 84.6104 69.3676 84.5184C69.375 84.5069 69.4516 84.3922 69.4075 84.4636C69.4467 84.4007 69.4856 84.3324 69.5306 84.2746C69.5833 84.208 69.648 84.157 69.6847 84.097C69.9076 83.7342 70.4762 83.8933 70.4071 84.3435L70.4098 84.3433Z" fill="#49312C"/>
<path d="M74.2263 59.4762C74.6682 65.4716 82.5919 64.7918 82.0088 58.8091C81.5669 52.8136 73.6432 53.4935 74.2263 59.4762Z" fill="#49312C"/>
<path d="M45.5462 65.1044C45.9882 71.0999 53.9119 70.42 53.3288 64.4373C52.8869 58.4419 44.9631 59.1217 45.5462 65.1044Z" fill="#49312C"/>
<path d="M82.6827 51.251C82.1025 51.2375 81.5975 50.8963 81.0928 50.6371C80.5822 50.3728 80.0779 50.119 79.5392 49.9196C79.1098 49.7588 78.569 49.606 78.0582 49.492C77.7862 49.432 77.5148 49.3803 77.2387 49.3398C76.9543 49.2971 76.6407 49.3057 76.3647 49.2269C75.949 49.1062 75.6412 48.7729 75.6746 48.3197C75.7088 47.8774 76.0332 47.5594 76.472 47.5064C76.7971 47.4669 77.1634 47.5474 77.4839 47.5985C77.7742 47.6462 78.0625 47.7049 78.3461 47.7749C78.9716 47.9272 79.5849 48.1378 80.1766 48.3909C80.7149 48.6231 81.2396 48.8946 81.7345 49.2092C82.2439 49.5336 82.9321 49.9929 83.0959 50.6069C83.1702 50.8831 83.0112 51.2604 82.6718 51.2517L82.6827 51.251Z" fill="#49312C"/>
<path d="M44.6076 57.4231C44.4498 56.7786 44.9873 56.3443 45.4398 55.9844C45.846 55.6632 46.2655 55.3766 46.7265 55.1363C47.6956 54.6249 48.754 54.14 49.8456 53.9696C50.2887 53.8999 50.7011 54.2832 50.7844 54.6871C50.8753 55.1205 50.6367 55.5691 50.2102 55.7195C49.7384 55.8842 49.2521 56.0006 48.7806 56.1707C48.3119 56.3406 47.8505 56.5373 47.4019 56.7603C47.4863 56.7188 47.4098 56.757 47.3704 56.779C47.3177 56.8073 47.2678 56.8354 47.215 56.861C47.0701 56.9369 46.9251 57.01 46.7771 57.0806C46.7507 57.0934 46.7243 57.1062 46.6979 57.119C46.748 57.0936 46.748 57.0936 46.6979 57.119C46.6452 57.1473 46.5924 57.173 46.5398 57.2013C46.4345 57.2579 46.332 57.3144 46.2296 57.3735C45.9618 57.5264 45.6736 57.6999 45.366 57.7545C45.115 57.7969 44.6818 57.7375 44.6078 57.4258L44.6076 57.4231Z" fill="#49312C"/>
<path d="M93.9268 89.7692C95.2452 90.5225 96.2141 91.6641 97.0253 92.9315C97.4246 93.5534 97.7615 94.2207 98.0501 94.8996C98.3387 95.5785 98.7022 96.3887 98.7198 97.136C98.7359 97.8643 97.8193 97.9977 97.5217 97.385C97.2274 96.7802 97.1064 96.0757 96.8515 95.4491C96.5932 94.8117 96.2793 94.2002 95.9286 93.6077C95.2272 92.4253 94.314 91.3755 93.4619 90.3022C93.2368 90.0176 93.6135 89.5893 93.924 89.7694L93.9268 89.7692Z" fill="#49312C"/>
<path d="M95.1316 94.9264C95.5116 95.3147 95.8982 95.6807 96.2061 96.1315C96.5235 96.6007 96.766 97.1299 96.9568 97.6627C97.3411 98.7283 97.4771 99.9125 97.311 101.036C97.2576 101.401 96.8566 101.639 96.5075 101.571C96.1084 101.49 95.9495 101.138 95.9724 100.768C96.0359 99.8536 95.9705 98.9321 95.7326 98.0447C95.6101 97.5889 95.4371 97.1532 95.248 96.7213C95.0552 96.276 94.8508 95.8206 94.5611 95.4341C94.3017 95.0891 94.8222 94.6096 95.1316 94.9264Z" fill="#49312C"/>
</svg>
