<svg width="130" height="160" viewBox="0 0 130 160" fill="none" xmlns="http://www.w3.org/2000/svg">
<path d="M118.415 82.359C119.418 70.0017 129.248 62.2163 132.72 50.9261C135.292 39.1943 116.152 31.6113 108.661 24.5557C92.5262 4.9741 49.5179 9.05538 30.66 25.6657C25.1068 24.0589 17.5882 37.6274 13.3965 41.2763C3.35432 46.3971 -3.22602 64.2309 7.4448 71.2865C18.6124 76.4655 20.1609 99.8554 32.6868 90.7055C34.0912 93.732 38.4362 95.0475 37.8229 99.0091C35.2165 110.965 18.4621 120.544 25.8826 134.112C13.2402 137.639 10.8515 160.418 25.1651 156.638C28.0199 159.312 32.466 159.345 35.3361 156.766C37.2342 160.541 42.1188 158.465 45.0042 157.107C49.7172 155.319 56.3834 152.553 54.9146 146.319H85.6637C84.428 152.688 92.2349 154.534 96.7209 156.448C99.6155 157.646 103.608 159.946 105.668 156.242C108.523 158.87 113.35 156.322 115.757 154.083C127.124 160.799 129.761 139.969 119.734 134.667C126.268 119.137 105.665 110.496 103.697 96.6603C103.301 95.719 103.133 94.7071 103.32 93.6032C103.589 92.0057 104.509 90.5859 105.356 89.2337C105.77 88.1176 106.328 87.3264 106.99 86.7684C107.33 86.3483 107.708 85.9589 108.149 85.6277C109.314 84.7569 110.676 84.7323 111.951 85.2413C114.444 85.0175 116.965 84.8642 118.415 82.359Z" fill="#F0CAA5"/>
<path d="M102.906 125.695C96.8067 137.268 89.1501 127.805 85.7557 149.162C89.5365 143.219 56.2791 147.586 55.0985 146.316C53.0686 138.749 45.3507 135.452 39.9877 132.214C40.6009 129.424 37.5929 125.904 41.619 123.693C44.9061 121.087 53.7739 124.88 53.2158 118.422C42.3518 97.0375 72.7575 114.387 82.4318 107.509C86.5805 105.908 93.1394 104.89 94.9087 110.235C96.0248 113.044 92.106 116.91 95.016 119.002C99.8822 119.066 103.773 119.547 102.906 125.692V125.695Z" fill="#FAF1DD"/>
<path d="M82.024 88.185C78.1512 90.4694 72.7882 86.7009 71.0128 83.1072C69.6912 78.9216 64.733 95.1088 57.8583 90.3928C60.9522 85.4591 64.7299 79.7679 62.8012 73.3624C69.2435 75.5885 68.3635 81.3011 74.6985 72.1113C75.4222 78.0171 83.0512 82.6779 82.0209 88.185H82.024Z" fill="#FAF1DD"/>
<path d="M84.7163 91.1133C81.5212 87.8968 71.4514 91.0091 70.4701 82.5062C68.0845 86.8205 64.3774 91.4292 58.4808 91.5672C54.1542 121.081 92.4649 122.028 84.7132 91.1133H84.7163Z" fill="#EAAC8E"/>
<path d="M85.3111 88.5376C77.6515 91.5304 68.9554 84.7201 70.096 76.5575C69.5226 76.7139 68.9002 76.6188 68.336 76.4808C70.7522 83.2942 65.7296 91.1348 58.5329 91.8063C57.8338 91.8861 57.8001 92.8918 58.5329 92.9255C62.8748 93.1341 67.137 91.791 70.6112 89.2153C74.9807 92.9072 81.3249 93.0206 85.8508 89.4729C86.2924 89.1264 85.8171 88.3536 85.3081 88.5376H85.3111Z" fill="#49312C"/>
<path d="M30.5434 24.5311C28.4491 23.1176 25.9041 24.0252 24.1317 25.5369C22.0129 27.346 21.2279 30.1456 20.1302 32.5986C17.9132 37.5507 13.4793 40.7244 9.37348 44.0238C5.40566 47.2097 1.25385 51.2204 0.223565 56.4271C-0.84045 61.7962 2.04803 66.7207 5.61417 70.4923C9.24776 74.3344 13.9055 77.3179 16.5947 81.9849C18.0727 84.5514 18.6154 87.5257 20.0474 90.1137C21.2463 92.2816 23.2271 94.3207 25.7661 94.7347C31.3008 95.6331 35.3299 89.6078 37.2924 85.2751C39.5492 80.2861 40.3219 74.6901 39.4235 69.2872C37.5009 57.7272 27.6304 47.3231 30.8592 35.0793C31.2088 33.7577 31.7362 32.5066 32.4384 31.3322C32.8738 30.6025 31.773 29.9769 31.31 30.673C28.3387 35.113 28.1885 40.706 29.369 45.7685C30.6998 51.4749 33.6036 56.6141 35.7132 62.0384C37.7278 67.2175 38.8531 72.6234 37.7401 78.1551C37.2311 80.6786 36.3633 83.1225 35.1306 85.3824C33.9286 87.5871 32.4292 89.85 30.3901 91.3709C28.4154 92.8428 26.0206 93.2904 23.9692 91.7021C21.9117 90.1076 21.0347 87.5288 20.1731 85.1769C19.2409 82.638 18.1003 80.3352 16.3708 78.2378C14.7334 76.2509 12.7863 74.5429 10.8515 72.8534C7.17493 69.6368 2.879 66.0247 1.76286 61.0204C0.609922 55.8506 3.77744 51.248 7.36197 47.8659C10.9802 44.4561 15.3467 41.8681 18.5817 38.0506C20.2865 36.0391 21.3812 33.819 22.3778 31.3997C23.3253 29.0969 24.4843 26.5764 26.9803 25.6411C27.98 25.267 29.0961 25.2119 30.0988 25.6013C30.7458 25.8527 31.0616 24.8868 30.5465 24.5373L30.5434 24.5311Z" fill="#49312C"/>
<path d="M32.0981 91.1286C32.2115 92.2049 32.8677 93.3057 33.4841 94.1766C34.1648 95.1394 34.9406 96.0225 35.7991 96.832C37.4979 98.4388 39.4082 99.8064 41.3093 101.165C43.2043 102.52 45.084 103.906 46.7214 105.577C47.5493 106.42 48.3067 107.331 48.9322 108.337C49.5669 109.358 49.9073 110.434 50.3672 111.529C50.631 112.161 51.7931 112.191 51.7042 111.348C51.4681 109.113 49.9717 106.978 48.5336 105.332C46.9667 103.538 45.0809 102.045 43.1675 100.64C41.2081 99.2023 39.1905 97.8408 37.3752 96.2157C36.4921 95.4246 35.6428 94.5721 34.8915 93.6522C34.1586 92.7569 33.6312 91.6745 32.8677 90.8159C32.6224 90.5399 32.0582 90.7453 32.0981 91.1348V91.1286Z" fill="#49312C"/>
<path d="M48.8125 102.401C50.8578 105.295 54.1081 107.38 57.573 108.116C58.404 108.294 58.7597 107.028 57.9257 106.837C54.6202 106.089 51.7777 104.369 49.4779 101.885C49.156 101.539 48.5304 102.002 48.8125 102.401Z" fill="#49312C"/>
<path d="M48.1533 84.9623C48.5856 86.9646 50.0943 88.6879 51.6918 89.9022C53.5439 91.3096 55.7731 92.1222 58.0912 92.3031C62.8716 92.6772 67.6336 90.5676 69.406 85.8975C70.4424 83.1654 70.4455 80.1574 70.0192 77.3088C69.8629 76.2631 68.388 76.6372 68.3021 77.5418C68.0384 80.2862 68.2469 83.1501 67.1093 85.732C66.0943 88.0317 64.1166 89.6231 61.7371 90.3621C59.1277 91.1747 56.3128 90.8803 53.9118 89.5741C51.7439 88.3935 50.3794 86.5568 48.9229 84.6373C48.6439 84.2693 48.0521 84.4686 48.1563 84.9592L48.1533 84.9623Z" fill="#49312C"/>
<path d="M60.8817 52.5052C61.7709 52.1863 62.7675 51.9901 63.6935 51.7815C64.6134 51.573 65.5486 51.4044 66.4869 51.3155C68.3972 51.1376 70.3198 51.248 72.1933 51.6558C73.0611 51.8429 73.4291 50.509 72.5613 50.325C70.5314 49.8927 68.4494 49.7547 66.3827 49.9663C65.3554 50.0705 64.3374 50.2392 63.347 50.5244C62.3412 50.8126 61.4796 51.2572 60.5505 51.7172C60.1151 51.9318 60.4217 52.6739 60.8847 52.5083L60.8817 52.5052Z" fill="#49312C"/>
<path d="M98.8152 19.1957C100.842 17.9416 103.464 18.8554 105.046 20.41C106.895 22.2283 107.974 24.663 109.606 26.6592C112.792 30.5626 117.498 32.7152 121.837 35.0517C125.909 37.2441 130.245 39.9762 132.198 44.3703C134.492 49.537 131.769 54.8663 128.721 59.0519C125.627 63.2956 121.785 67.147 120.166 72.2708C119.307 74.9937 119.301 77.9374 118.268 80.6112C117.471 82.6779 115.839 84.6925 113.451 84.7323C110.955 84.7753 108.692 83.052 106.972 81.4176C105.169 79.7036 103.623 77.738 102.387 75.5824C99.7719 71.0197 98.7293 65.8315 99.1954 60.6065C99.7382 54.5198 101.872 48.7214 102.765 42.693C103.531 37.5201 103.421 31.8627 100.67 27.2387C100.054 26.2023 99.315 25.2456 98.4748 24.384C97.883 23.7768 96.9969 24.6814 97.5488 25.31C101.296 29.5599 102.026 35.5423 101.437 40.9759C100.753 47.2986 98.484 53.324 97.7512 59.6406C97.1103 65.1692 97.9474 70.661 100.419 75.6683C101.587 78.0355 103.108 80.2463 104.926 82.1658C106.748 84.0915 108.98 85.965 111.614 86.5967C114.162 87.2069 116.732 86.3943 118.415 84.3736C120.23 82.1934 120.807 79.4797 121.255 76.7476C121.503 75.2206 121.761 73.6936 122.273 72.2279C122.714 70.9553 123.334 69.7533 124.023 68.5973C125.431 66.2393 127.17 64.1082 128.835 61.9311C132.204 57.531 135.421 52.1863 134.409 46.4063C133.544 41.4634 129.485 37.8267 125.443 35.2694C121.071 32.5005 116.023 30.7006 112.218 27.0854C110.194 25.1628 108.992 22.6883 107.291 20.5143C105.797 18.607 103.639 17.0278 101.115 17.0462C99.9467 17.0554 98.9501 17.4633 98.1191 18.2789C97.653 18.7358 98.2571 19.5453 98.8244 19.1927L98.8152 19.1957Z" fill="#49312C"/>
<path d="M107.852 83.886C107.272 84.8397 106.956 85.9742 106.417 86.9646C105.868 87.9734 105.221 88.9424 104.522 89.8562C103.065 91.7665 101.348 93.4622 99.6952 95.2008C98.0609 96.921 96.4786 98.7271 95.2307 100.751C94.0869 102.606 92.8849 105.099 93.0566 107.343C93.1118 108.064 94.2218 108.322 94.3935 107.524C94.6419 106.381 94.7738 105.252 95.1877 104.145C95.6047 103.035 96.1904 101.993 96.8405 101.008C98.1682 98.9969 99.8332 97.243 101.501 95.5166C103.123 93.8363 104.736 92.1406 106.116 90.2548C106.797 89.3226 107.392 88.3414 107.867 87.2866C108.293 86.3422 108.772 85.1678 108.689 84.116C108.655 83.6837 108.091 83.4874 107.849 83.8891L107.852 83.886Z" fill="#49312C"/>
<path d="M93.5257 97.7857C92.6396 99.1901 91.5633 100.499 90.3091 101.591C89.0519 102.686 87.62 103.532 86.0899 104.185C85.4061 104.476 85.9059 105.685 86.602 105.396C89.886 104.041 92.7653 101.456 94.2616 98.215C94.4885 97.7274 93.8262 97.3165 93.5288 97.7857H93.5257Z" fill="#49312C"/>
<path d="M90.9991 80.6265C90.1252 82.3528 89.3586 84.0577 88.0033 85.4836C86.6388 86.9217 84.9032 87.9366 82.9868 88.4426C79.068 89.4728 74.7966 87.863 72.8127 84.303C71.5862 82.1045 71.2857 79.5441 70.6019 77.1554C70.3351 76.2263 68.851 76.3796 68.8847 77.3885C69.0472 82.2394 70.7705 87.63 75.6368 89.5986C79.8438 91.3035 85.078 90.1689 88.4111 87.1608C90.162 85.5786 91.7105 83.2574 91.781 80.8381C91.7933 80.4333 91.1892 80.2524 90.9991 80.6265Z" fill="#49312C"/>
<path d="M81.1102 66.0338C80.638 68.4654 79.0496 70.618 76.9829 71.9795C75.7993 72.7583 74.4317 73.3256 73.518 74.4049C72.8894 75.15 72.5245 76.0853 71.9419 76.8702C71.3593 77.6491 70.4118 78.3084 69.4643 78.0876L67.8299 78.1918C67.3976 78.0354 66.9867 77.7656 66.6524 77.4528C65.938 76.7905 65.4106 75.935 64.6624 75.3156C63.5647 74.4202 62.1235 74.1106 60.8172 73.5555C58.5328 72.5927 56.5796 70.7683 55.6811 68.4593C54.7735 66.1504 55.0127 63.3784 56.4661 61.37C57.6681 59.7203 59.5723 58.6931 61.5531 58.184C63.442 57.6996 65.1959 57.5708 67.1308 57.5708C69.3079 57.2642 71.9511 56.8839 73.475 56.9943C75.5141 57.1323 77.5747 57.8038 79.0527 59.2051C80.8465 60.9131 81.5824 63.5992 81.1132 66.0338H81.1102Z" fill="#49312C"/>
<path d="M31.5828 24.712C32.5089 23.9823 33.579 23.3721 34.5418 22.6852C35.4801 22.0137 36.4522 21.3881 37.4364 20.7841C39.3529 19.6097 41.3705 18.5886 43.4495 17.7361C47.6718 16.0037 52.1732 14.9857 56.7298 14.7557C57.6711 14.7066 57.6773 13.2378 56.7298 13.2869C51.9586 13.5291 47.2487 14.5809 42.8363 16.4115C40.6408 17.3222 38.5281 18.423 36.5258 19.7017C35.5384 20.3333 34.5878 21.0232 33.671 21.753C32.7174 22.5135 31.9692 23.3966 31.1259 24.2582C30.8285 24.5618 31.2639 24.9604 31.5798 24.712H31.5828Z" fill="#49312C"/>
<path d="M97.8002 17.5338C96.0278 15.4732 93.2559 14.1854 90.7844 13.1551C88.221 12.0849 85.5287 11.3643 82.7752 10.9933C79.8806 10.6039 77.0258 10.6897 74.1281 11.0086C71.163 11.3367 68.0047 11.7446 65.1469 10.6284C62.2676 9.50307 60.5903 6.77404 60.4002 3.75064C60.345 2.88594 59.1093 2.88594 59.0571 3.75064C58.8977 6.35395 60.1978 8.98179 62.2093 10.6192C64.4447 12.4406 67.4006 12.9251 70.2094 12.8392C73.4167 12.7411 76.5659 12.0972 79.7855 12.226C82.7016 12.3425 85.587 12.8944 88.3498 13.8297C89.8921 14.354 91.3824 15.0071 92.8266 15.7645C94.326 16.5526 95.6967 17.5491 97.2237 18.282C97.7113 18.515 98.1559 17.9539 97.7971 17.5368L97.8002 17.5338Z" fill="#49312C"/>
<path d="M60.8572 11.0025C57.5578 8.5617 55.6199 4.73799 55.1753 0.711905C55.0741 -0.211059 53.6912 -0.263187 53.6973 0.711905C53.7188 5.26233 56.4938 9.58279 60.3757 11.8273C60.9216 12.1432 61.3416 11.3582 60.8572 11.0025Z" fill="#49312C"/>
<path d="M58.1956 11.4839C55.764 11.3521 53.3232 10.5395 51.2994 9.18111C50.5114 8.6537 49.7724 9.92623 50.5574 10.4506C52.8265 11.9653 55.4666 12.7105 58.1956 12.5571C58.8855 12.5173 58.8886 11.5207 58.1956 11.4839Z" fill="#49312C"/>
<path d="M40.5243 133.579C39.5554 131.822 38.1878 130.362 36.4829 129.298C35.655 128.78 34.7596 128.36 33.8397 128.032C32.9352 127.71 31.7975 127.363 30.8286 127.462C30.0252 127.544 29.7922 128.654 30.6323 128.915C31.4725 129.176 32.3648 129.246 33.2111 129.519C34.0605 129.792 34.8669 130.154 35.6335 130.611C37.1452 131.506 38.5435 132.708 39.5891 134.125C39.9938 134.674 40.8677 134.204 40.5243 133.579Z" fill="#49312C"/>
<path d="M33.0577 134.318C31.6411 133.907 30.3072 133.656 28.8201 133.708C27.382 133.757 25.9285 134.045 24.5701 134.514C21.8656 135.446 19.4616 137.13 17.6709 139.365C14.3102 143.566 12.7924 150.496 16.2543 155.108C18.0971 157.561 21.4456 158.848 24.3126 157.441C25.0792 157.064 24.5425 155.816 23.733 156.064C21.6081 156.717 19.2501 155.856 17.8764 154.145C16.3279 152.213 15.9814 149.582 16.2359 147.187C16.751 142.355 19.894 137.985 24.3862 136.102C26.9588 135.023 30.0711 134.664 32.8278 135.137C33.3552 135.226 33.5882 134.474 33.0516 134.318H33.0577Z" fill="#49312C"/>
<path d="M26.364 148.595C25.4134 149.278 24.7081 150.054 24.3034 151.177C23.9078 152.274 23.8526 153.458 24.0857 154.595C24.5671 156.935 26.5142 158.729 28.814 159.25C30.1417 159.551 31.5185 159.486 32.7358 158.855C33.5821 158.416 32.9964 157.073 32.0919 157.331C30.019 157.919 27.5997 157.441 26.3701 155.522C25.763 154.574 25.5851 153.479 25.6924 152.369C25.7906 151.345 26.226 150.094 26.9067 149.306C27.2195 148.944 26.8024 148.279 26.3609 148.598L26.364 148.595Z" fill="#49312C"/>
<path d="M35.7409 150.661C35.0601 151.321 34.4867 151.998 34.1586 152.9C33.8305 153.801 33.8336 154.829 34.0391 155.758C34.4714 157.702 36.0107 159.174 37.8904 159.738C38.8164 160.017 39.7823 160.087 40.7298 159.888C41.8245 159.658 42.7658 159.017 43.7286 158.477C45.8383 157.297 48.2975 157.076 50.5083 156.156C52.5597 155.304 54.3749 153.424 54.4516 151.121C54.4731 150.434 53.3569 150.438 53.3876 151.121C53.5102 153.85 50.6033 154.835 48.4263 155.264C47.2641 155.494 46.0867 155.604 44.9368 155.902C43.747 156.211 42.7444 156.825 41.6773 157.417C39.9601 158.37 37.9517 158.306 36.5565 156.806C35.3116 155.466 35.2104 152.75 36.4155 151.342C36.811 150.879 36.1885 150.232 35.7409 150.668V150.661Z" fill="#49312C"/>
<path d="M55.1875 148.536C55.2304 147.558 55.3776 146.648 55.2611 145.663C55.1537 144.753 54.9544 143.854 54.6478 142.989C54.0161 141.205 53.0625 139.58 51.8237 138.151C49.5117 135.483 46.0529 133.444 42.4959 133.177C41.5699 133.107 41.4013 134.554 42.2782 134.781C45.4243 135.597 48.2545 136.894 50.4408 139.371C51.5201 140.595 52.3726 142.057 52.9583 143.581C53.2465 144.333 53.4826 145.099 53.6758 145.878C53.8873 146.727 54.1786 147.663 54.197 148.536C54.2124 149.177 55.1629 149.174 55.1905 148.536H55.1875Z" fill="#49312C"/>
<path d="M35.8021 101.499C34.1095 105.642 31.4112 109.321 28.8784 112.973C26.3824 116.573 23.9692 120.427 23.1351 124.791C22.6936 127.106 22.5403 129.82 23.5736 132.003C23.8925 132.677 25.1099 132.371 25.0179 131.61C24.8615 130.28 24.6223 129.007 24.653 127.658C24.6867 126.306 24.9136 124.975 25.2816 123.675C26.042 120.989 27.4035 118.532 28.906 116.196C30.4177 113.847 32.0735 111.593 33.5545 109.223C35.0264 106.868 36.1762 104.489 36.7619 101.763C36.8999 101.119 36.0352 100.91 35.796 101.496L35.8021 101.499Z" fill="#49312C"/>
<path d="M34.134 100.088C33.8734 100.809 33.487 101.517 33.1068 102.183C32.7327 102.842 32.3126 103.483 31.8649 104.093C30.9757 105.301 29.8442 106.341 28.6024 107.175C27.9002 107.647 28.5441 108.778 29.2708 108.318C30.712 107.408 31.9232 106.221 32.9228 104.844C33.4134 104.17 33.7998 103.458 34.1218 102.689C34.4529 101.895 34.6308 101.106 34.7933 100.266C34.8761 99.8309 34.2812 99.6684 34.1309 100.085L34.134 100.088Z" fill="#49312C"/>
<path d="M57.34 92.7232C57.57 94.9217 57.938 97.1111 58.1955 99.3127C58.4378 101.404 58.6616 103.504 59.2135 105.54C60.2101 109.22 62.2277 112.617 65.9135 114.065C69.4673 115.46 73.7326 114.89 77.2344 113.62C80.9017 112.289 84.3084 109.772 85.5932 105.948C86.4057 103.529 86.1788 100.913 86.047 98.4081C85.9029 95.6791 85.7863 92.9439 85.5257 90.221C85.4552 89.4943 84.3666 89.4636 84.3697 90.221C84.385 92.4809 84.5046 94.7408 84.6181 96.9976C84.7223 99.0858 84.937 101.211 84.7407 103.299C84.3666 107.224 81.6713 110.109 78.2002 111.719C74.9254 113.237 70.8871 114.025 67.3853 112.872C64.0307 111.768 62.0683 108.726 61.1147 105.479C60.5137 103.437 60.253 101.309 59.9587 99.2054C59.6398 96.9271 59.327 94.5077 58.0698 92.5238C57.8797 92.2233 57.2971 92.3092 57.34 92.7232Z" fill="#49312C"/>
<path d="M69.8813 86.0386C70.1603 87.9458 70.5559 89.8347 70.8012 91.748C71.0434 93.6338 71.1477 95.538 71.1599 97.4391C71.1661 98.2977 72.4999 98.3008 72.4938 97.4391C72.4692 93.5449 72.0338 89.387 70.5007 85.7779C70.3381 85.3946 69.8322 85.6982 69.8813 86.0386Z" fill="#49312C"/>
<path d="M51.5477 52.9866C52.2438 59.7141 43.333 60.5298 42.7964 53.7869C42.1004 47.0594 51.0111 46.2438 51.5477 52.9866Z" fill="#49312C"/>
<path d="M92.241 49.212C92.937 55.9395 84.0263 56.7551 83.4897 50.0123C82.7936 43.2848 91.7043 42.4691 92.241 49.212Z" fill="#49312C"/>
<path d="M40.6439 45.5293C40.9965 45.4588 41.2725 45.2564 41.5515 45.0387C41.8244 44.8241 42.0483 44.6616 42.3273 44.4377C42.7413 44.1096 43.2748 43.7417 43.79 43.4442C44.0567 43.2909 44.3296 43.1437 44.6056 43.0088C44.7436 42.9413 44.8816 42.8739 45.0226 42.8095C45.0993 42.7727 45.179 42.739 45.2557 42.7022C45.2894 42.6868 45.3998 42.6408 45.3047 42.6807C45.6052 42.5581 45.9088 42.4446 46.2185 42.3465C46.5742 42.23 46.9513 42.1594 47.2856 41.9847C48.1441 41.54 47.7486 40.1234 46.7919 40.1602C46.0345 40.1909 45.2342 40.5895 44.5504 40.8869C43.9371 41.1567 43.3545 41.4787 42.7995 41.8467C42.2108 42.2392 41.6374 42.6715 41.1192 43.1529C40.5918 43.6405 40.0153 44.2568 39.954 44.9989C39.9203 45.376 40.3281 45.5876 40.6439 45.5263V45.5293Z" fill="#49312C"/>
<path d="M91.7503 40.5711C91.8668 39.8474 91.1892 39.4274 90.6311 39.1269C90.0822 38.8325 89.518 38.578 88.9232 38.3848C88.3957 38.2131 87.8561 38.069 87.3103 37.9586C86.6909 37.8329 86.0163 37.7102 85.3816 37.7194C84.8756 37.7286 84.4525 38.0996 84.385 38.5995C84.3237 39.0502 84.6119 39.6359 85.1117 39.7125C85.4429 39.7647 85.7771 39.7861 86.1083 39.826C86.1696 39.8321 86.2585 39.8444 86.1481 39.8291C86.2156 39.8383 86.2861 39.8475 86.3536 39.8597C86.4916 39.8812 86.6295 39.9026 86.7675 39.9272C87.3348 40.0222 87.8959 40.151 88.4448 40.3166C88.9753 40.473 89.5088 40.6263 90.0332 40.8133C90.3183 40.9145 90.6219 41.0311 90.9285 41.0403C91.2137 41.0464 91.692 40.9237 91.7472 40.5742L91.7503 40.5711Z" fill="#49312C"/>
<path d="M105.294 132.067C106.119 131.764 106.981 131.574 107.846 131.429C108.25 131.362 108.661 131.325 109.072 131.294C109.532 131.261 110.004 131.294 110.455 131.175C111.047 131.015 111.004 130.197 110.455 130.019C109.986 129.866 109.465 129.915 108.98 129.951C108.499 129.985 108.017 130.062 107.545 130.157C106.616 130.344 105.739 130.69 104.88 131.086C104.335 131.337 104.721 132.279 105.294 132.067Z" fill="#49312C"/>
<path d="M107.744 133.729C112.669 132.886 118.093 134.579 121.279 138.488C124.146 142.008 125.691 147.758 123.26 151.906C121.972 154.105 119.353 155.43 116.839 154.657C116.036 154.412 115.484 155.653 116.259 156.034C118.743 157.254 121.684 156.457 123.597 154.546C125.658 152.492 126.381 149.386 126.222 146.556C125.906 140.892 122.254 135.719 117.038 133.505C115.573 132.883 114.03 132.5 112.445 132.346C110.728 132.178 109.158 132.435 107.517 132.91C106.984 133.064 107.214 133.818 107.741 133.729H107.744Z" fill="#49312C"/>
<path d="M113.665 147.896C114.346 148.684 114.782 149.935 114.88 150.959C114.987 152.069 114.809 153.16 114.202 154.111C112.975 156.031 110.556 156.512 108.48 155.92C107.588 155.666 106.984 157.003 107.836 157.444C109.967 158.548 112.647 157.971 114.463 156.506C116.315 155.012 117.032 152.452 116.401 150.183C116.232 149.57 115.977 148.993 115.597 148.481C115.202 147.948 114.745 147.567 114.208 147.184C113.77 146.868 113.347 147.528 113.662 147.892L113.665 147.896Z" fill="#49312C"/>
<path d="M104.163 149.929C105.368 151.339 105.267 154.056 104.022 155.393C102.627 156.892 100.615 156.957 98.9011 156.003C97.834 155.411 96.8344 154.798 95.6416 154.488C94.4917 154.191 93.3142 154.077 92.1521 153.85C89.975 153.421 87.0681 152.44 87.1908 149.708C87.2214 149.024 86.1022 149.021 86.1267 149.708C86.1973 151.802 87.574 153.237 89.2513 154.31C91.2352 155.583 93.814 155.702 95.9635 156.619C97.0275 157.073 97.9536 157.785 99.0298 158.214C99.9651 158.588 100.934 158.668 101.924 158.502C103.85 158.18 105.567 156.95 106.297 155.117C106.69 154.129 106.788 153.016 106.567 151.974C106.331 150.864 105.635 150.021 104.841 149.251C104.393 148.819 103.767 149.463 104.166 149.926L104.163 149.929Z" fill="#49312C"/>
<path d="M86.3843 147.129C86.4027 146.289 86.6818 145.403 86.878 144.587C87.0773 143.768 87.3226 142.962 87.6231 142.174C88.2057 140.65 89.0612 139.187 90.1406 137.964C92.3269 135.483 95.1571 134.186 98.3031 133.373C99.174 133.15 99.0237 131.699 98.0854 131.77C94.5254 132.037 91.0727 134.076 88.7577 136.743C87.5434 138.142 86.6051 139.73 85.9734 141.469C85.6453 142.367 85.4338 143.305 85.3203 144.256C85.2007 145.243 85.351 146.151 85.3939 147.129C85.4215 147.764 86.3721 147.77 86.3874 147.129H86.3843Z" fill="#49312C"/>
<path d="M105.576 106.316C106.371 107.086 107.051 107.963 107.809 108.766C108.539 109.539 109.29 110.29 110.02 111.066C111.507 112.648 112.969 114.237 114.285 115.969C116.833 119.324 118.82 123.101 119.531 127.29C119.915 129.559 119.902 132.009 119.403 134.26C119.191 135.21 120.574 135.597 120.865 134.661C123.616 125.769 118.207 117.008 112.209 110.861C111.289 109.916 110.32 109.024 109.339 108.144C108.351 107.258 107.245 106.522 106.254 105.642C105.797 105.234 105.132 105.887 105.58 106.316H105.576Z" fill="#49312C"/>
</svg>
